<?xml version="1.0" encoding="utf-8"?>
<!-- Generator: Adobe Illustrator 18.1.1, SVG Export Plug-In . SVG Version: 6.00 Build 0)  -->
<svg version="1.1" id="Layer_1" xmlns="http://www.w3.org/2000/svg" xmlns:xlink="http://www.w3.org/1999/xlink" x="0px" y="0px"
	 viewBox="0 0 268.3 205.4" enable-background="new 0 0 268.3 205.4" xml:space="preserve">
<g>
	<g>
		<g>
			<path fill="#9DC9D7" d="M118.1,68.4c0,2.8,0.5,5.1,1.4,7c0.9,1.9,2.2,3.5,3.9,4.8c1.7,1.2,3.6,2.1,5.7,2.7c2.2,0.6,4.5,0.9,7,0.9
				c2.7,0,5.1-0.3,7-1c1.9-0.6,3.5-1.5,4.7-2.5c1.2-1,2.1-2.2,2.6-3.5c0.5-1.3,0.8-2.6,0.8-4c0-2.8-0.6-4.8-1.8-6.1
				c-1.2-1.3-2.6-2.2-4-2.8c-2.5-0.9-5.5-1.8-8.8-2.7c-3.4-0.8-7.5-1.9-12.4-3.3c-3.1-0.8-5.6-1.9-7.6-3.2c-2-1.3-3.6-2.8-4.8-4.4
				c-1.2-1.6-2-3.3-2.5-5.1c-0.5-1.8-0.7-3.7-0.7-5.5c0-3.6,0.7-6.8,2.2-9.4c1.5-2.7,3.5-4.8,5.9-6.6c2.5-1.7,5.3-3,8.4-3.9
				c3.1-0.8,6.3-1.3,9.5-1.3c3.7,0,7.2,0.5,10.5,1.5c3.3,1,6.2,2.4,8.7,4.4c2.5,1.9,4.5,4.3,5.9,7.2c1.5,2.9,2.2,6.2,2.2,9.9h-12.5
				c-0.3-4.6-1.9-7.9-4.7-9.8c-2.8-1.9-6.4-2.9-10.7-2.9c-1.5,0-3,0.2-4.5,0.5c-1.5,0.3-2.9,0.8-4.2,1.5c-1.3,0.7-2.3,1.7-3.1,2.9
				c-0.8,1.2-1.2,2.7-1.2,4.5c0,2.6,0.8,4.5,2.3,6c1.6,1.4,3.6,2.5,6.1,3.3c0.3,0.1,1.3,0.4,3.1,0.9c1.8,0.5,3.9,1.1,6.1,1.7
				c2.3,0.6,4.5,1.2,6.6,1.8c2.2,0.6,3.7,1,4.6,1.3c2.3,0.7,4.4,1.7,6.1,3c1.7,1.3,3.2,2.7,4.3,4.4c1.2,1.6,2,3.4,2.6,5.3
				c0.6,1.9,0.8,3.8,0.8,5.6c0,4-0.8,7.5-2.4,10.3c-1.6,2.9-3.8,5.2-6.4,7c-2.7,1.8-5.7,3.1-9.1,4c-3.4,0.8-6.9,1.3-10.4,1.3
				c-4.1,0-7.9-0.5-11.5-1.5c-3.6-1-6.7-2.6-9.4-4.6c-2.7-2.1-4.8-4.7-6.4-8c-1.6-3.3-2.4-7.1-2.5-11.5H118.1z"/>
		</g>
		<g>
			<path fill="#9DC9D7" d="M191.5,51.4h-12l-0.7-2.8c-3.8-16.6-18.6-32.1-34.6-36.1l-2.5-0.7V0.1l4.2,1
				c21.8,4.7,40.2,23.5,44.9,45.8L191.5,51.4z"/>
		</g>
		<g>
			<path fill="#FFFFFF" d="M135.1,113.5c-31.3,0-56.8-25.6-56.8-57.1c0-26.7,18.9-50,44.9-55.5l4.4-0.9v11.4l-2.8,0.7
				c-20.2,4.6-35.4,23.7-35.4,44.4c0,25,20.4,45.4,45.4,45.4c20.5,0,39-14.6,43.9-34.4l0.7-3h12.1l-1,4.7
				C185,94.7,161.7,113.5,135.1,113.5z"/>
		</g>
	</g>
	<g>
		<path fill="#FFFFFF" d="M54,154.6l2.5-0.7c0.1,0.9,0.3,1.7,0.5,2.5c0.3,0.8,0.6,1.5,1,2.1c0.4,0.7,1,1.2,1.7,1.6
			c0.7,0.4,1.5,0.6,2.5,0.6c1.5,0,2.6-0.4,3.4-1.2s1.2-2,1.2-3.5c0-1.2-0.4-2.4-1.1-3.6c-0.7-1.2-1.8-2.5-3.2-4l-5.1-5.3
			c-1.1-1.2-1.9-2.3-2.5-3.3c-0.6-1-0.9-2.1-0.9-3.2c0-2.1,0.7-3.8,2.1-5.1c1.4-1.3,3.2-1.9,5.4-1.9c2.1,0,3.8,0.6,5.1,1.8
			c1.3,1.2,2.1,2.9,2.6,5.2l0.1,0.3l-2.4,0.8l0-0.3c-0.3-1.6-0.8-2.9-1.7-4c-0.9-1-2.1-1.5-3.6-1.5c-1.4,0-2.6,0.4-3.4,1.1
			c-0.8,0.7-1.3,1.8-1.3,3.2c0,0.9,0.2,1.7,0.7,2.5c0.5,0.8,1.1,1.7,2,2.6l4.8,5.2c0.1,0.1,0.4,0.5,0.9,1s0.8,0.9,1,1.1
			c0.2,0.2,0.4,0.5,0.9,1s0.7,0.9,0.9,1.1c0.2,0.3,0.4,0.6,0.7,1.1c0.3,0.5,0.5,0.9,0.6,1.2s0.2,0.8,0.3,1.2
			c0.1,0.5,0.2,0.9,0.2,1.4c0,2.3-0.7,4.1-2.1,5.3s-3.3,1.9-5.5,1.9c-1.2,0-2.2-0.2-3.1-0.7c-0.9-0.4-1.7-1.1-2.4-1.8
			c-0.6-0.8-1.2-1.7-1.6-2.6C54.4,156.8,54.2,155.8,54,154.6z"/>
		<path fill="#FFFFFF" d="M73.6,162.4v-32.3h2.9v32.3H73.6z"/>
		<path fill="#FFFFFF" d="M81.4,162.4v-32.3H85l6.2,27.9c0.8-3.7,1.8-8.1,3-13.4s2.3-10.1,3.2-14.5h3.5v32.3h-2.5v-25.9l-6,25.9H90
			l-6-25.9v25.9H81.4z"/>
		<path fill="#FFFFFF" d="M105.9,162.4v-32.3h7.9c1.1,0,2.1,0.2,3,0.5c0.9,0.3,1.6,0.7,2.2,1.2c0.6,0.5,1.1,1.2,1.4,1.9
			c0.4,0.8,0.6,1.5,0.8,2.4c0.2,0.8,0.2,1.7,0.2,2.7c0,1-0.1,1.9-0.2,2.7c-0.1,0.8-0.4,1.7-0.7,2.5c-0.4,0.8-0.8,1.5-1.4,2.1
			s-1.3,1-2.2,1.4c-0.9,0.4-2,0.5-3.2,0.5h-5v14.4H105.9z M108.8,145.7l5.4,0c1.6,0,2.8-0.5,3.4-1.7c0.7-1.1,1-2.9,1-5.3
			c0-2.2-0.4-3.9-1.1-4.9s-1.9-1.6-3.4-1.6h-5.4V145.7z"/>
		<path fill="#FFFFFF" d="M125.3,162.4v-32.3h2.9v30.1h9v2.3H125.3z"/>
		<path fill="#FFFFFF" d="M140.7,162.4v-32.3H152v2.3h-8.4v12.3h6v2.2h-6v13.3h8.4v2.3H140.7z"/>
		<path fill="#FFFFFF" d="M155,162.4l6.9-16.3l-6.9-16.1h2.7l5.7,13.6l5.5-13.6h2.9l-6.9,16.4l6.9,16H169l-5.6-13.5l-5.5,13.5H155z"
			/>
		<path fill="#FFFFFF" d="M175.6,162.4v-32.3h2.9v32.3H175.6z"/>
		<path fill="#FFFFFF" d="M188,162.4v-30.1h-6.3v-2.3h15.5v2.3h-6.4v30.1H188z"/>
		<path fill="#FFFFFF" d="M206,162.4v-10l-7.1-22.3h2.9c0.3,0.9,0.6,2.2,1.1,3.8c0.5,1.6,1,3.3,1.5,5c0.5,1.7,1,3.3,1.5,4.9
			c0.5,1.6,0.9,2.8,1.2,3.8l0.5,1.5c0.8-2.9,1.7-6.2,2.8-9.8c1.1-3.6,1.9-6.7,2.7-9.3h2.8l-6.8,22.3v10H206z"/>
	</g>
	<g>
		<path fill="#9DC9D7" d="M0,194.8l1.7-0.5c0.1,0.6,0.2,1.2,0.4,1.7c0.2,0.5,0.4,1,0.7,1.5c0.3,0.5,0.7,0.8,1.2,1.1
			c0.5,0.3,1.1,0.4,1.7,0.4c1,0,1.8-0.3,2.4-0.8c0.6-0.6,0.8-1.4,0.8-2.4c0-0.9-0.3-1.7-0.8-2.5c-0.5-0.8-1.3-1.7-2.2-2.8l-3.5-3.7
			c-0.8-0.8-1.3-1.6-1.8-2.3c-0.4-0.7-0.6-1.4-0.6-2.2c0-1.5,0.5-2.6,1.4-3.5s2.2-1.3,3.7-1.3c1.5,0,2.6,0.4,3.5,1.2
			c0.9,0.8,1.5,2,1.8,3.6l0,0.2l-1.7,0.5l0-0.2c-0.2-1.1-0.6-2-1.2-2.7c-0.6-0.7-1.5-1.1-2.5-1.1c-1,0-1.8,0.3-2.4,0.8
			c-0.6,0.5-0.9,1.2-0.9,2.2c0,0.6,0.2,1.2,0.5,1.7c0.3,0.6,0.8,1.2,1.4,1.8l3.3,3.6c0.1,0.1,0.3,0.3,0.7,0.7s0.6,0.6,0.7,0.7
			c0.1,0.1,0.3,0.4,0.6,0.7s0.5,0.6,0.6,0.8s0.3,0.4,0.5,0.8c0.2,0.3,0.3,0.6,0.4,0.9c0.1,0.2,0.1,0.5,0.2,0.8
			c0.1,0.3,0.1,0.6,0.1,0.9c0,1.6-0.5,2.8-1.5,3.7c-1,0.9-2.3,1.3-3.8,1.3c-0.8,0-1.5-0.2-2.2-0.5c-0.7-0.3-1.2-0.7-1.6-1.3
			c-0.4-0.5-0.8-1.1-1.1-1.8S0.1,195.6,0,194.8z"/>
		<path fill="#9DC9D7" d="M13.3,181.1v-2.3h2v2.3H13.3z M13.3,200.2v-15.6h2v15.6H13.3z"/>
		<path fill="#9DC9D7" d="M18.2,200.2v-15.6h2v1.4c1-1.2,2.2-1.8,3.5-1.8c0.5,0,1,0.2,1.5,0.5s0.9,0.8,1.1,1.3
			c0.5-0.6,1.1-1,1.7-1.3c0.6-0.3,1.2-0.4,1.7-0.4c0.8,0,1.5,0.3,2.1,0.8c0.6,0.6,0.9,1.2,0.9,2.1v13h-2v-12.6
			c0-0.7-0.1-1.1-0.4-1.4c-0.3-0.3-0.7-0.4-1.2-0.4c-0.8,0-1.6,0.4-2.5,1.3v13.2h-2v-12.6c0-1.2-0.6-1.9-1.7-1.9
			c-0.4,0-0.9,0.1-1.4,0.4c-0.5,0.3-0.9,0.7-1.4,1.1v12.9H18.2z"/>
		<path fill="#9DC9D7" d="M35.5,205.2v-20.6h2v1.5c0.8-1.2,1.8-1.8,3.1-1.8c0.2,0,0.4,0,0.6,0.1s0.4,0.1,0.6,0.2
			c0.2,0.1,0.4,0.3,0.6,0.5c0.2,0.2,0.4,0.5,0.5,0.9c0.2,0.4,0.3,0.8,0.4,1.3c0.1,0.5,0.2,1.1,0.3,1.9s0.1,1.6,0.1,2.5v1.2
			c0,1.3-0.1,2.5-0.2,3.5c-0.1,1-0.3,1.7-0.5,2.2c-0.2,0.5-0.5,0.9-0.8,1.2c-0.3,0.3-0.6,0.5-0.9,0.6c-0.3,0.1-0.6,0.1-1,0.1
			c-0.5,0-1.1-0.2-1.6-0.5s-1-0.8-1.4-1.4v6.5H35.5z M42,193v-1.2c0-0.8,0-1.5-0.1-2.2c0-0.6-0.1-1.2-0.1-1.6
			c-0.1-0.4-0.1-0.8-0.2-1.1s-0.2-0.5-0.3-0.7c-0.1-0.2-0.2-0.3-0.4-0.4s-0.3-0.1-0.4-0.1c-0.1,0-0.2,0-0.4,0
			c-0.4,0-0.8,0.1-1.3,0.4c-0.5,0.3-0.9,0.7-1.3,1.1v10.3c0.9,1,1.8,1.5,2.6,1.5c0.2,0,0.3,0,0.5-0.1c0.1,0,0.3-0.1,0.4-0.2
			c0.2-0.1,0.3-0.3,0.4-0.6c0.1-0.3,0.2-0.6,0.3-1.1c0.1-0.4,0.2-1,0.2-1.7C41.9,194.8,42,193.9,42,193z"/>
		<path fill="#9DC9D7" d="M46.9,200.2v-22.4h2v22.4H46.9z"/>
		<path fill="#9DC9D7" d="M52,181.1v-2.3h2v2.3H52z M52,200.2v-15.6h2v15.6H52z"/>
		<path fill="#9DC9D7" d="M58.3,200.2v-14.5h-2.2v-1.1h2.2V183c0-0.1,0-0.1,0-0.2c0-0.3,0-0.5,0-0.7c0-0.2,0-0.4,0.1-0.7
			c0-0.3,0.1-0.6,0.1-0.8c0.1-0.2,0.2-0.4,0.3-0.7s0.3-0.5,0.5-0.6c0.2-0.2,0.4-0.3,0.8-0.4c0.3-0.1,0.7-0.2,1.1-0.2
			c0.6,0,1.1,0.1,1.6,0.2v1.4c-0.2-0.1-0.5-0.1-1-0.1c-0.3,0-0.5,0-0.7,0.1c-0.2,0.1-0.3,0.2-0.4,0.3c-0.1,0.1-0.2,0.3-0.2,0.5
			c-0.1,0.2-0.1,0.4-0.1,0.5c0,0.1,0,0.3,0,0.6c0,0,0,0.1,0,0.1v2.3h2.5v1.1h-2.5v14.5H58.3z"/>
		<path fill="#9DC9D7" d="M64.8,204.1v-1.6c1-0.1,1.8-0.2,2.3-0.5s0.7-0.7,0.7-1.2c0-0.6,0-1.2-0.1-1.8l-3.4-14.3h2l2.7,13l2.7-13h2
			l-3.9,16.7c-0.3,1-0.8,1.7-1.6,2.1S66.3,204.1,64.8,204.1L64.8,204.1z"/>
		<path fill="#9DC9D7" d="M75.9,181.1v-2.3h2v2.3H75.9z M75.9,200.2v-15.6h2v15.6H75.9z"/>
		<path fill="#9DC9D7" d="M80.8,200.2v-15.6h2v1.5c0.4-0.6,0.9-1.1,1.5-1.4s1.2-0.5,1.8-0.5c0.8,0,1.5,0.3,2,1
			c0.6,0.6,0.9,1.6,0.9,2.7v12.2h-2V188c0-0.8-0.2-1.3-0.5-1.7c-0.3-0.4-0.7-0.5-1.2-0.5c-0.4,0-0.8,0.1-1.3,0.4
			c-0.5,0.3-0.9,0.7-1.3,1.2v12.9H80.8z"/>
		<path fill="#9DC9D7" d="M93.2,197.5c0,0.2,0.1,0.3,0.4,0.4s1,0.3,2.1,0.5c0.4,0.1,0.6,0.1,0.8,0.2c0.7,0.1,1.3,0.3,1.8,0.5
			s1,0.4,1.4,0.6c0.4,0.3,0.8,0.6,1,0.9c0.2,0.4,0.3,0.8,0.3,1.3c0,0.4-0.1,0.8-0.2,1.2c-0.1,0.4-0.3,0.6-0.6,0.9
			c-0.2,0.2-0.5,0.4-0.8,0.6c-0.3,0.2-0.6,0.3-1,0.4c-0.3,0.1-0.7,0.2-1,0.2c-0.4,0.1-0.7,0.1-0.9,0.1c-0.3,0-0.5,0-0.8,0
			c-3.5,0-5.2-0.7-5.2-2c0-0.9,0.3-1.7,0.8-2.3c0.6-0.7,1.3-1.2,2.1-1.6c-0.1,0-0.3-0.1-0.6-0.2c-0.3-0.1-0.6-0.2-1-0.4
			c-0.4-0.2-0.5-0.3-0.5-0.5c0-0.1,0-0.2,0-0.4c0-0.1,0.1-0.3,0.1-0.4c0.1-0.2,0.1-0.3,0.2-0.4c0.1-0.1,0.2-0.3,0.3-0.5
			c0.1-0.2,0.2-0.3,0.3-0.4s0.2-0.3,0.3-0.4c0.1-0.2,0.2-0.3,0.3-0.4s0.1-0.2,0.2-0.3s0.1-0.2,0.2-0.2c-0.6-0.6-1.1-1.3-1.4-2.1
			c-0.3-0.9-0.4-1.8-0.4-2.7c0-0.5,0-1,0.1-1.5s0.3-1,0.5-1.5c0.2-0.5,0.5-0.9,0.8-1.3s0.8-0.7,1.3-0.9c0.5-0.2,1.1-0.4,1.7-0.4
			c0.8,0,1.5,0.2,2.1,0.6c0.6,0.4,1.1,1,1.6,1.8c0.2-0.3,0.3-0.5,0.4-0.7c0.1-0.2,0.3-0.4,0.5-0.7c0.2-0.3,0.4-0.5,0.7-0.6
			s0.5-0.3,0.8-0.3v1.9c-0.3,0.1-0.7,0.2-1,0.4c-0.4,0.2-0.7,0.5-0.9,0.8c0.3,0.9,0.5,1.7,0.5,2.4c0,0.6-0.1,1.2-0.2,1.8
			c-0.1,0.6-0.3,1.1-0.5,1.6c-0.2,0.5-0.5,0.9-0.9,1.3c-0.3,0.4-0.8,0.6-1.3,0.8s-1.1,0.3-1.7,0.3c-0.7,0-1.4-0.1-1.9-0.3
			C93.7,196.2,93.4,196.9,93.2,197.5z M97.3,200.2l-2.8-0.6c-0.4,0.3-0.9,0.8-1.3,1.5c-0.4,0.7-0.7,1.2-0.7,1.7c0,0.2,0,0.4,0.1,0.5
			c0.1,0.1,0.2,0.3,0.4,0.4c0.2,0.1,0.4,0.2,0.5,0.2s0.4,0.1,0.7,0.1s0.5,0,0.7,0s0.4,0,0.7,0c0.1,0,0.1,0,0.2,0
			c2.3,0,3.4-0.6,3.4-1.7c0-0.6-0.2-1.1-0.5-1.4C98.5,200.6,98,200.3,97.3,200.2z M94.9,193.8c0.3,0.2,0.7,0.3,1.1,0.3
			s0.8-0.1,1.1-0.3c0.3-0.2,0.6-0.4,0.7-0.7c0.2-0.3,0.3-0.6,0.4-1c0.1-0.4,0.2-0.7,0.2-1s0-0.6,0-0.9c0-0.3,0-0.6,0-0.9
			s-0.1-0.7-0.2-1.1c-0.1-0.4-0.2-0.8-0.4-1.1s-0.4-0.6-0.7-0.8s-0.7-0.3-1.1-0.3c-0.4,0-0.7,0.1-1,0.2c-0.3,0.2-0.5,0.4-0.7,0.6
			c-0.2,0.3-0.3,0.5-0.4,0.8c-0.1,0.3-0.2,0.6-0.3,1c-0.1,0.3-0.1,0.6-0.1,0.9c0,0.3,0,0.5,0,0.7c0,0.3,0,0.6,0,0.9
			c0,0.3,0.1,0.6,0.2,1s0.2,0.7,0.4,1C94.3,193.4,94.6,193.6,94.9,193.8z"/>
		<path fill="#9DC9D7" d="M109.1,200.2v-22.4h2v22.4H109.1z"/>
		<path fill="#9DC9D7" d="M114.3,181.1v-2.3h2v2.3H114.3z M114.3,200.2v-15.6h2v15.6H114.3z"/>
		<path fill="#9DC9D7" d="M120.5,200.2v-14.5h-2.2v-1.1h2.2V183c0-0.1,0-0.1,0-0.2c0-0.3,0-0.5,0-0.7c0-0.2,0-0.4,0.1-0.7
			c0-0.3,0.1-0.6,0.1-0.8c0.1-0.2,0.2-0.4,0.3-0.7s0.3-0.5,0.5-0.6c0.2-0.2,0.4-0.3,0.8-0.4c0.3-0.1,0.7-0.2,1.1-0.2
			c0.6,0,1.1,0.1,1.6,0.2v1.4c-0.2-0.1-0.5-0.1-1-0.1c-0.3,0-0.5,0-0.7,0.1s-0.3,0.2-0.4,0.3c-0.1,0.1-0.2,0.3-0.2,0.5
			c-0.1,0.2-0.1,0.4-0.1,0.5c0,0.1,0,0.3,0,0.6c0,0,0,0.1,0,0.1v2.3h2.5v1.1h-2.5v14.5H120.5z"/>
		<path fill="#9DC9D7" d="M126.6,193.1v-2.2c0-1.1,0.1-2,0.2-2.8s0.3-1.4,0.6-1.9c0.2-0.5,0.5-0.9,0.9-1.1c0.4-0.3,0.8-0.5,1.2-0.6
			c0.4-0.1,0.9-0.1,1.4-0.1c1.4,0,2.4,0.5,3,1.5c0.6,1,0.9,2.5,0.9,4.7c0,0.7,0,1.2,0,1.6h-6.2v2.4c0,1,0,1.9,0.1,2.5
			s0.3,1.1,0.5,1.5c0.2,0.3,0.5,0.6,0.7,0.7c0.3,0.1,0.6,0.2,1,0.2c0.6,0,1.1-0.3,1.5-0.9c0.4-0.6,0.6-1.6,0.6-2.9h1.8
			c-0.1,0.6-0.1,1.1-0.2,1.6s-0.2,0.9-0.4,1.4s-0.4,0.8-0.7,1.1s-0.6,0.6-1.1,0.7c-0.4,0.2-0.9,0.3-1.5,0.3c-1.1,0-2-0.2-2.6-0.7
			c-0.6-0.4-1.1-1.2-1.3-2.3S126.5,195,126.6,193.1z M128.5,191.1h4.3c0-0.3,0-0.7,0-1.1s0-0.7,0-1.1c0-0.4,0-0.7-0.1-1
			c0-0.3-0.1-0.6-0.2-0.9c-0.1-0.3-0.2-0.5-0.3-0.7c-0.1-0.2-0.3-0.4-0.5-0.5s-0.5-0.2-0.8-0.2c-0.5,0-0.9,0.1-1.2,0.3
			c-0.3,0.2-0.5,0.4-0.7,0.6s-0.3,0.6-0.4,1.2c-0.1,0.6-0.1,1-0.1,1.5C128.5,189.6,128.5,190.2,128.5,191.1z"/>
		<path fill="#9DC9D7" d="M136.9,183.5l-0.4-0.7c0.3-0.1,0.6-0.3,0.8-0.5s0.3-0.5,0.4-0.8c0.1-0.3,0.1-0.5,0.2-0.7
			c0-0.2,0-0.4,0-0.6h-1.7v-2.3h2.4c0,2.1-0.1,3.6-0.3,4.3C138.1,183,137.7,183.4,136.9,183.5z"/>
		<path fill="#9DC9D7" d="M139.6,196.3l1.5-0.5c0.1,0.4,0.3,0.8,0.4,1.1c0.2,0.4,0.4,0.7,0.6,1.1c0.3,0.4,0.5,0.6,0.9,0.9
			s0.7,0.3,1.1,0.3c0.7,0,1.2-0.2,1.5-0.6c0.3-0.4,0.5-1,0.5-1.7c0-1-0.9-2.3-2.7-3.8l-1.1-1c-0.9-0.8-1.5-1.4-1.9-2
			c-0.4-0.6-0.7-1.3-0.7-2c0-1.2,0.4-2.1,1.1-2.7c0.7-0.6,1.7-1,2.8-1c0.6,0,1.1,0.1,1.5,0.3c0.5,0.2,0.8,0.5,1.2,0.9
			c0.3,0.4,0.6,0.8,0.8,1.2c0.2,0.4,0.4,0.9,0.5,1.5l-1.7,0.5c-0.1-0.5-0.2-0.9-0.4-1.4s-0.4-0.8-0.8-1.2c-0.4-0.4-0.8-0.5-1.2-0.5
			c-0.6,0-1,0.2-1.4,0.6c-0.3,0.4-0.5,0.9-0.5,1.5c0,0.5,0.2,1,0.5,1.5s0.8,1,1.5,1.5l1.2,1.1c0.4,0.3,0.7,0.6,0.9,0.8
			c0.2,0.2,0.5,0.5,0.8,0.8s0.6,0.7,0.7,1c0.2,0.3,0.3,0.6,0.4,1s0.2,0.8,0.2,1.2c0,1.2-0.4,2.1-1.1,2.8s-1.7,1-2.9,1
			c-1.1,0-2.1-0.4-2.9-1.2C140.4,198.6,139.9,197.6,139.6,196.3z"/>
		<path fill="#9DC9D7" d="M155.2,192.8V192c0-0.7,0-1.2,0-1.6c0-0.4,0-0.9,0.1-1.5s0.1-1.1,0.2-1.5s0.3-0.8,0.5-1.2s0.5-0.8,0.8-1
			s0.7-0.4,1.1-0.6c0.5-0.2,1-0.3,1.6-0.3c0.6,0,1.1,0.1,1.6,0.3c0.5,0.2,0.8,0.4,1.1,0.8s0.5,0.7,0.7,1.2c0.2,0.5,0.3,1,0.4,1.4
			c0.1,0.5,0.1,1,0.2,1.6c0,0,0,0,0,0.1c0,0,0,0.1,0,0.1h-2v-0.1c-0.1-1.5-0.2-2.5-0.5-3.1s-0.8-0.9-1.5-0.9c-0.3,0-0.6,0-0.9,0.1
			s-0.5,0.3-0.6,0.5c-0.2,0.2-0.3,0.5-0.4,0.8c-0.1,0.3-0.2,0.7-0.2,1.2c-0.1,0.5-0.1,1.1-0.1,1.6c0,0.6,0,1.2,0,2.1v0.8
			c0,2.4,0.2,4.1,0.5,5s0.9,1.4,1.8,1.4c0.7,0,1.2-0.3,1.5-0.9c0.3-0.6,0.5-1.7,0.5-3.2V195h2v0.1c0,0.7-0.1,1.2-0.1,1.7
			c-0.1,0.5-0.2,1-0.4,1.5s-0.4,0.9-0.7,1.2c-0.3,0.3-0.7,0.6-1.1,0.8c-0.5,0.2-1,0.3-1.6,0.3c-0.5,0-1-0.1-1.4-0.2
			c-0.4-0.1-0.8-0.3-1.1-0.5c-0.3-0.2-0.5-0.5-0.8-0.7c-0.2-0.2-0.4-0.6-0.5-1s-0.2-0.8-0.3-1.1c-0.1-0.3-0.1-0.8-0.2-1.3
			c0-0.6-0.1-1-0.1-1.4C155.2,194,155.2,193.5,155.2,192.8z"/>
		<path fill="#9DC9D7" d="M165.9,192.8V192c0-0.7,0-1.2,0-1.6c0-0.4,0-0.9,0.1-1.5s0.1-1.1,0.2-1.5s0.2-0.8,0.4-1.2
			c0.2-0.5,0.4-0.8,0.7-1c0.3-0.2,0.7-0.4,1.1-0.6c0.4-0.2,1-0.3,1.5-0.3s1.1,0.1,1.5,0.3c0.4,0.2,0.8,0.4,1.1,0.6s0.5,0.6,0.7,1
			c0.2,0.5,0.3,0.9,0.4,1.2c0.1,0.4,0.2,0.9,0.2,1.5s0.1,1.1,0.1,1.5c0,0.4,0,0.9,0,1.6v0.8c0,0.6,0,1,0,1.3c0,0.3,0,0.7,0,1.2
			c0,0.5-0.1,0.9-0.1,1.2c0,0.3-0.1,0.6-0.2,1.1s-0.2,0.8-0.3,1c-0.1,0.2-0.3,0.5-0.5,0.8c-0.2,0.3-0.4,0.5-0.7,0.6
			c-0.3,0.1-0.6,0.3-1,0.4c-0.4,0.1-0.8,0.1-1.2,0.1s-0.9,0-1.2-0.1c-0.4-0.1-0.7-0.2-1-0.4c-0.3-0.1-0.5-0.4-0.7-0.6
			c-0.2-0.3-0.4-0.5-0.5-0.8c-0.1-0.2-0.2-0.6-0.3-1c-0.1-0.4-0.2-0.8-0.2-1.1c0-0.3-0.1-0.7-0.1-1.2c0-0.5,0-0.9,0-1.2
			C165.9,193.9,165.9,193.4,165.9,192.8z M167.8,192v0.8c0,2.4,0.1,4.1,0.4,5c0.3,0.9,0.9,1.4,1.7,1.4s1.5-0.5,1.7-1.4
			c0.3-0.9,0.4-2.6,0.4-5V192c0-0.8,0-1.5,0-2.1c0-0.6-0.1-1.1-0.1-1.6c-0.1-0.5-0.1-0.9-0.2-1.2c-0.1-0.3-0.2-0.6-0.4-0.8
			c-0.2-0.2-0.4-0.4-0.6-0.5c-0.2-0.1-0.5-0.2-0.8-0.2s-0.6,0.1-0.8,0.2s-0.4,0.3-0.6,0.5c-0.2,0.2-0.3,0.5-0.4,0.8
			c-0.1,0.3-0.2,0.7-0.2,1.2c-0.1,0.5-0.1,1.1-0.1,1.6C167.9,190.5,167.8,191.2,167.8,192z"/>
		<path fill="#9DC9D7" d="M176.9,200.2v-15.6h2v1.4c1-1.2,2.2-1.8,3.5-1.8c0.5,0,1,0.2,1.5,0.5c0.5,0.3,0.9,0.8,1.1,1.3
			c0.5-0.6,1.1-1,1.7-1.3c0.6-0.3,1.2-0.4,1.7-0.4c0.8,0,1.5,0.3,2.1,0.8c0.6,0.6,0.9,1.2,0.9,2.1v13h-2v-12.6
			c0-0.7-0.1-1.1-0.4-1.4c-0.3-0.3-0.7-0.4-1.2-0.4c-0.8,0-1.6,0.4-2.5,1.3v13.2h-2v-12.6c0-1.2-0.6-1.9-1.7-1.9
			c-0.4,0-0.9,0.1-1.4,0.4s-0.9,0.7-1.4,1.1v12.9H176.9z"/>
		<path fill="#9DC9D7" d="M194.2,205.2v-20.6h2v1.5c0.8-1.2,1.8-1.8,3.1-1.8c0.2,0,0.4,0,0.6,0.1c0.2,0,0.4,0.1,0.6,0.2
			s0.4,0.3,0.6,0.5c0.2,0.2,0.4,0.5,0.5,0.9c0.2,0.4,0.3,0.8,0.4,1.3c0.1,0.5,0.2,1.1,0.3,1.9c0.1,0.8,0.1,1.6,0.1,2.5v1.2
			c0,1.3-0.1,2.5-0.2,3.5c-0.1,1-0.3,1.7-0.5,2.2c-0.2,0.5-0.5,0.9-0.8,1.2c-0.3,0.3-0.6,0.5-0.9,0.6c-0.3,0.1-0.6,0.1-1,0.1
			c-0.5,0-1.1-0.2-1.6-0.5c-0.5-0.3-1-0.8-1.4-1.4v6.5H194.2z M200.7,193v-1.2c0-0.8,0-1.5-0.1-2.2c0-0.6-0.1-1.2-0.2-1.6
			c-0.1-0.4-0.1-0.8-0.2-1.1c-0.1-0.3-0.2-0.5-0.3-0.7c-0.1-0.2-0.2-0.3-0.4-0.4c-0.2-0.1-0.3-0.1-0.4-0.1c-0.1,0-0.2,0-0.4,0
			c-0.4,0-0.8,0.1-1.3,0.4s-0.9,0.7-1.3,1.1v10.3c0.9,1,1.8,1.5,2.6,1.5c0.2,0,0.3,0,0.5-0.1c0.1,0,0.3-0.1,0.4-0.2
			c0.2-0.1,0.3-0.3,0.4-0.6c0.1-0.3,0.2-0.6,0.3-1.1c0.1-0.4,0.2-1,0.2-1.7C200.6,194.8,200.7,193.9,200.7,193z"/>
		<path fill="#9DC9D7" d="M205.6,200.2v-22.4h2v22.4H205.6z"/>
		<path fill="#9DC9D7" d="M210.5,193.1v-2.2c0-1.1,0.1-2,0.2-2.8s0.3-1.4,0.6-1.9c0.2-0.5,0.5-0.9,0.9-1.1c0.4-0.3,0.8-0.5,1.2-0.6
			c0.4-0.1,0.9-0.1,1.4-0.1c1.4,0,2.4,0.5,3,1.5c0.6,1,0.9,2.5,0.9,4.7c0,0.7,0,1.2,0,1.6h-6.2v2.4c0,1,0,1.9,0.1,2.5
			s0.3,1.1,0.5,1.5c0.2,0.3,0.5,0.6,0.7,0.7c0.3,0.1,0.6,0.2,1,0.2c0.6,0,1.1-0.3,1.5-0.9c0.4-0.6,0.6-1.6,0.6-2.9h1.8
			c-0.1,0.6-0.1,1.1-0.2,1.6s-0.2,0.9-0.4,1.4s-0.4,0.8-0.7,1.1s-0.6,0.6-1.1,0.7c-0.4,0.2-0.9,0.3-1.5,0.3c-1.1,0-2-0.2-2.6-0.7
			c-0.6-0.4-1.1-1.2-1.3-2.3S210.5,195,210.5,193.1z M212.5,191.1h4.3c0-0.3,0-0.7,0-1.1s0-0.7,0-1.1c0-0.4,0-0.7-0.1-1
			c0-0.3-0.1-0.6-0.2-0.9c-0.1-0.3-0.2-0.5-0.3-0.7c-0.1-0.2-0.3-0.4-0.5-0.5s-0.5-0.2-0.8-0.2c-0.5,0-0.9,0.1-1.2,0.3
			c-0.3,0.2-0.5,0.4-0.7,0.6s-0.3,0.6-0.4,1.2c-0.1,0.6-0.1,1-0.1,1.5C212.5,189.6,212.5,190.2,212.5,191.1z"/>
		<path fill="#9DC9D7" d="M220.2,200.2l3.4-8.1l-3.3-7.4h2l2.5,6.5l2.6-6.5h2l-3.3,7.4l3.4,8.1h-1.9l-2.7-6.9l-2.7,6.9H220.2z"/>
		<path fill="#9DC9D7" d="M231.8,181.1v-2.3h2v2.3H231.8z M231.8,200.2v-15.6h2v15.6H231.8z"/>
		<path fill="#9DC9D7" d="M237.9,196.6v-10.8h-2.1v-1.1h2.1v-5.5h2v5.5h2.5v1.1h-2.5v10.7c0,0.4,0,0.7,0,0.9c0,0.2,0,0.4,0.1,0.7
			c0,0.2,0.1,0.4,0.2,0.6s0.2,0.2,0.4,0.3c0.2,0.1,0.4,0.1,0.6,0.1c0.4,0,0.8,0,1.1-0.1v1.3c-0.6,0.1-1.1,0.2-1.7,0.2
			c-0.5,0-0.9-0.1-1.2-0.2c-0.3-0.2-0.6-0.3-0.8-0.6s-0.3-0.5-0.4-0.9c-0.1-0.4-0.2-0.7-0.2-1S237.9,197,237.9,196.6z"/>
		<path fill="#9DC9D7" d="M244.7,181.1v-2.3h2v2.3H244.7z M244.7,200.2v-15.6h2v15.6H244.7z"/>
		<path fill="#9DC9D7" d="M249.5,193.1v-2.2c0-1.1,0.1-2,0.2-2.8s0.3-1.4,0.6-1.9c0.2-0.5,0.5-0.9,0.9-1.1c0.4-0.3,0.8-0.5,1.2-0.6
			c0.4-0.1,0.9-0.1,1.4-0.1c1.4,0,2.4,0.5,3,1.5c0.6,1,0.9,2.5,0.9,4.7c0,0.7,0,1.2,0,1.6h-6.2v2.4c0,1,0,1.9,0.1,2.5
			s0.3,1.1,0.5,1.5c0.2,0.3,0.5,0.6,0.7,0.7c0.3,0.1,0.6,0.2,1,0.2c0.6,0,1.1-0.3,1.5-0.9c0.4-0.6,0.6-1.6,0.6-2.9h1.8
			c-0.1,0.6-0.1,1.1-0.2,1.6s-0.2,0.9-0.4,1.4s-0.4,0.8-0.7,1.1s-0.6,0.6-1.1,0.7c-0.4,0.2-0.9,0.3-1.5,0.3c-1.1,0-2-0.2-2.6-0.7
			c-0.6-0.4-1.1-1.2-1.3-2.3S249.5,195,249.5,193.1z M251.5,191.1h4.3c0-0.3,0-0.7,0-1.1s0-0.7,0-1.1c0-0.4,0-0.7-0.1-1
			c0-0.3-0.1-0.6-0.2-0.9c-0.1-0.3-0.2-0.5-0.3-0.7c-0.1-0.2-0.3-0.4-0.5-0.5s-0.5-0.2-0.8-0.2c-0.5,0-0.9,0.1-1.2,0.3
			c-0.3,0.2-0.5,0.4-0.7,0.6s-0.3,0.6-0.4,1.2c-0.1,0.6-0.1,1-0.1,1.5C251.5,189.6,251.5,190.2,251.5,191.1z"/>
		<path fill="#9DC9D7" d="M259.9,196.3l1.5-0.5c0.1,0.4,0.3,0.8,0.4,1.1c0.2,0.4,0.4,0.7,0.6,1.1c0.3,0.4,0.5,0.6,0.9,0.9
			s0.7,0.3,1.1,0.3c0.7,0,1.2-0.2,1.5-0.6c0.3-0.4,0.5-1,0.5-1.7c0-1-0.9-2.3-2.7-3.8l-1.1-1c-0.9-0.8-1.5-1.4-1.9-2
			c-0.4-0.6-0.7-1.3-0.7-2c0-1.2,0.4-2.1,1.1-2.7c0.7-0.6,1.7-1,2.8-1c0.6,0,1.1,0.1,1.5,0.3c0.5,0.2,0.8,0.5,1.2,0.9
			c0.3,0.4,0.6,0.8,0.8,1.2c0.2,0.4,0.4,0.9,0.5,1.5l-1.7,0.5c-0.1-0.5-0.2-0.9-0.4-1.4s-0.4-0.8-0.8-1.2c-0.4-0.4-0.8-0.5-1.2-0.5
			c-0.6,0-1,0.2-1.4,0.6c-0.3,0.4-0.5,0.9-0.5,1.5c0,0.5,0.2,1,0.5,1.5s0.8,1,1.5,1.5l1.2,1.1c0.4,0.3,0.7,0.6,0.9,0.8
			c0.2,0.2,0.5,0.5,0.8,0.8s0.6,0.7,0.7,1c0.2,0.3,0.3,0.6,0.4,1s0.2,0.8,0.2,1.2c0,1.2-0.4,2.1-1.1,2.8s-1.7,1-2.9,1
			c-1.1,0-2.1-0.4-2.9-1.2C260.7,198.6,260.2,197.6,259.9,196.3z"/>
	</g>
</g>
</svg>
